<?xml version="1.0" encoding="utf-8"?>
<!-- Generator: Adobe Illustrator 21.0.2, SVG Export Plug-In . SVG Version: 6.00 Build 0)  -->
<svg version="1.1" id="_x30_" xmlns="http://www.w3.org/2000/svg" xmlns:xlink="http://www.w3.org/1999/xlink" x="0px" y="0px"
	 viewBox="0 0 1200 1200" style="enable-background:new 0 0 1200 1200;" xml:space="preserve">
<style type="text/css">
	.st0{fill:#00532C;}
	.st1{font-family:'ArialMT';}
	.st2{font-size:30px;}
</style>
<path class="st0" d="M909.9,1015c-3.9-7.6-11.7-11.2-20-9.3c-2.1-2.5-4.2-5.1-6.4-7.5c-5.3-5.9-11-11.5-17.1-16.5
	c7.3-6.6,14.5-13.1,21.8-19.7c-10-1.3-20-2.6-30-3.9c-3.5-8-7.1-15.9-10.7-23.9c6.9-5.1,13.8-10.1,20.8-15.2
	c9.3,3.8,18.7,7.6,28,11.5c-3.2-9.6-6.3-19.2-9.5-28.7c6.5-7.7,13-15.4,19.5-23.1c-10.1,0-20.2,0.1-30.3,0.1
	c-5.3-8.6-10.6-17.2-15.9-25.7c-3.1,9.6-6.2,19.2-9.2,28.8c-7.6,1.8-15.1,3.7-22.7,5.5c-1.6-5.1-3.7-10-6.5-14.6
	c-3.3-5.5-7.4-10.5-12.2-14.6c-2.1-1.8-4.3-3.4-6.4-5.1c4.7-0.8,9.4-1.6,13.9-3.2c9.5-3.4,18-10.6,23.5-19.3
	c4.3-6.8,6.8-14.5,7.3-22.4c0.7-10.6-2.2-21.7-8-30.5c-3.8-5.8-8.9-10.7-14.6-14.7c-3.4-2.4-7-4.5-10.7-6.2c-2.3-1-4.7-1.9-7-2.8
	c8.8-2.7,14.9-6.3,20.1-11c5.9-5.3,10.7-12,13.8-19.7c2.7-6.8,4.2-14.4,4-21.8c-0.3-11.4-4.5-22.3-11.3-31
	c-4.2-5.4-9.3-10-15.1-13.5c-5.2-3.1-10.9-5.3-16.8-6.3c-3.4-0.6-6.9-0.7-10.4-0.9c1.8-1.8,3.5-3.6,5.1-5.6
	c2.7-3.5,4.7-7.5,5.9-11.8c1.8-6.4,2-13.2,0.7-19.7c-1-5.1-3-10-5.8-14.4c-4.2-6.4-10.3-11.8-17.3-14.6c-6-2.5-12.7-3-19.7-1.7
	c-6.2,1.2-12.6,3.8-17,8.4c-2.8,3-4.7,6.8-5.2,11c-0.4,4.2,0.6,8.8,3.4,11.8c2.5,2.7,6.3,4.1,9.9,4c3.3-0.1,6.3-1.6,8.5-3.8
	c2-2,3.4-4.5,4-7.6c0.6-3,0.4-6.4-0.2-9c1.4-0.4,2.8-0.8,4.2-0.9c4.2-0.4,8.7,1.4,12.2,4.1c5.1,3.9,8.4,9.7,9.3,16
	c1.3,8.5-1.8,17.9-7.9,23.9c-5.3,5.2-12.9,7.9-20.4,7.9c-7.3,0-14.5-2.3-20.2-6.7c-5.6-4.2-9.8-10.2-12.2-16.8
	c-2.5-6.8-3.1-14.3-1.8-21.5c1.1-6.3,3.6-12.3,7.3-17.3c4.3-5.7,10.3-9.9,15.4-14.9c7-6.9,12.4-15.4,16.1-24.6
	c5.6-14,7.3-29.6,4.6-44.3c-1.3-7.3-3.8-14.4-7.1-21c-4.2-8.3-10-15.7-16.7-22.2c-10.5-10.2-23.4-17.9-37.3-22.5
	c-7.8-2.5-15.8-4.1-24-4.6c6.5-9.1,13-18.1,19.5-27.2c12.9,0.9,25.8,1.9,38.7,2.8c-7.7-10.4-15.3-20.8-23-31.2
	c4.9-12,9.8-23.9,14.6-35.9c-12.3,4.1-24.5,8.1-36.8,12.2c-7.1-6-14.1-11.9-21.2-17.9c7.4-1.5,14.4-5.3,19.6-10.8
	c5-5.3,8.3-12.2,9.6-19.4c1.9-10.9-0.7-22.6-6.6-32c-5.4-8.5-13.5-15-22.8-19c-9.8-4.2-20.7-5.6-31.2-3.8c-6,1-11.7,3-17,5.9
	c-1.6,0.9-3.5,0.8-4.9-0.4c-1.4-1.2-2-2.9-1.5-4.7c5.2-17.6,14.3-34.6,15.1-51.3c0.4-10.1-2.2-20.1-6.4-30c8,0.6,16,1.3,24,1.9
	c-6.7-9.2-13.3-18.4-20-27.6c4.4-10.5,8.7-20.9,13.1-31.4c-10.8,3.5-21.6,7-32.4,10.5c-8.6-7.4-17.2-14.8-25.8-22.2
	c0,11.3,0,22.7-0.1,34c-9.7,5.9-19.4,11.8-29,17.7c10.8,3.5,21.6,7.1,32.3,10.6c2.6,11,5.3,22.1,7.9,33.1
	c4.7-6.4,9.4-12.9,14.1-19.3c2.3,7.8,3.5,15.5,2.8,23.2c-0.7,8.1-3.3,16.1-6.5,24.3c-0.8,2.2-2.7,3.6-5,3.9
	c-2.3,0.3-4.5-0.6-5.9-2.4c-1.8-2.4-3.6-4.8-5.4-7.1c-1.8-2.3-2.3-5.2-1.4-8c2.3-7.2-0.2-14.4-6.4-18.8c-6.2-4.4-13.8-4.2-19.8,0.4
	c-6,4.6-8.2,11.9-5.6,19c2.6,7.1,8.9,11.4,16.4,11.1c2.9-0.1,5.6,1.1,7.3,3.4c2.7,3.6,5.4,7.1,8.1,10.7c5,6.5,6.6,14.5,4.5,22.5
	c-5.1,19.8-4.9,40.5-0.9,60.3c-7.4-3.8-14.8-7.5-22.3-11.3c-0.9-11.3-1.8-22.6-2.7-33.9c-8,8-16,16.1-24,24.1
	c-11-2.6-22.1-5.3-33.1-7.9c5.2,10.1,10.3,20.2,15.5,30.3c-5.9,9.7-11.8,19.4-17.7,29.1c11.2-1.8,22.4-3.6,33.6-5.4
	c5,5.8,10,11.7,15,17.5c-4.3-1.9-8.8-3.4-13.4-4.4c-13-2.7-26.9-1.4-39.2,3.8c-10.7,4.5-20.2,11.8-27.3,20.9
	c-6.2,8.1-10.5,17.6-12.5,27.6c-2.4,12.1-1.2,25,3.4,36.6c4.2,10.6,11.4,20.1,20.8,26.8c0.1,0.1,0.3,0.2,0.4,0.3
	c-6.5,3.5-12.9,7-19.3,10.4c-10.9-6.3-21.8-12.7-32.7-19c2.3,12.4,4.5,24.8,6.8,37.2c-9.4,8.4-18.8,16.8-28.2,25.2
	c12.5,1.7,25,3.4,37.5,5c5.1,11.5,10.2,23.1,15.3,34.6c5.5-11.4,10.9-22.7,16.4-34.1c9.7-1,19.4-2,29.1-3c2.8,2.2,5.5,4.4,8.1,6.8
	c1.7,1.6,3.4,3.3,5,5c3.2,3.4,6.3,6.8,9.4,10.3c0.6,0.7,0.8,1.7,0.5,2.6c-0.4,0.9-1.1,1.5-2.1,1.6c-2.9,0.3-5.7,0.6-8.6,0.9
	c-3-7.3-10.1-10.9-17.8-8.9c-7.7,1.9-12.2,8.4-11.4,16.3c0.8,7.9,6.6,13.3,14.5,13.6c7.9,0.3,14.1-4.6,15.6-12.4
	c4.2-0.4,8.4-0.9,12.6-1.3c4.3-0.4,8.3,1.2,11.1,4.5c2.2,2.6,4.3,5.2,6.5,7.8c2.1,2.5,3.1,5.5,3,8.8c-0.2,4-0.2,7.9,0,11.8
	c-3.5-2.5-7.2-4.7-11.1-6.5c-9.8-4.6-20.7-6.9-31.6-6.5c-9.5,0.3-19,2.8-27.2,7.3c-4.5,2.5-8.6,5.7-12.7,8.8
	c-1.5-6-2.9-12.1-5.6-17.6c-3.5-6.9-9-13-15.6-17.4c-8.2-5.5-18-8.5-27.8-8.2c-7.1,0.2-14.1,2.2-20.3,5.8
	c-5.5,3.2-10.4,7.6-13.9,12.9c-3.7,5.6-6,12.2-6.6,18.9c-0.6,6.5,0.4,13.2,2.9,19.1c2,4.5,4.9,8.7,8.7,11.9
	c4.6,3.9,10.5,6.4,16.5,7.2c6.8,0.9,13.7-0.3,20-3.5c3.5-1.8,6.8-4.2,8.8-7.7c1.8-3.3,2.5-7.6,1.3-11.3c-0.8-2.6-2.4-4.9-4.5-6.4
	c-2.9-2.1-6.8-2.6-10.2-1.8c-3.6,0.8-6.8,3-8.8,5.8c-1.3,1.8-2.2,3.9-2.6,6c-0.3,1.5-0.4,3-0.4,4.6c-2.5,0.3-4.9,0.2-7.1-0.6
	c-4-1.5-7-5.5-8.9-9.7c-2.1-4.9-2.4-10.2-1.4-15.2c1-5,3.5-9.9,7.1-13.5c3.7-3.8,8.6-6.4,13.8-7.7c5.2-1.3,10.7-1.3,15.8,0.1
	c6.5,1.8,12.4,5.8,16.8,11c4.2,4.9,7.1,11,8.1,17.2c1.1,7.3-0.5,14.9-3.1,21.9c-2.4,6.3-5.7,12-8.2,18.1c-5.2,12.5-7,26.6-6.8,40.4
	c0.1,9.5,1.2,18.8,3.6,27.9c0.3,1.1,0.6,2.1,0.9,3.2c-7.2-0.9-14.4-1.7-21.6-2.6c-4.8-10.3-9.5-20.6-14.3-30.9
	c-4.8,10.3-9.5,20.6-14.3,30.9c-11.3,1.3-22.5,2.7-33.8,4c8.3,7.7,16.7,15.4,25,23.1c-2.2,11.1-4.4,22.3-6.6,33.4
	c9.9-5.5,19.8-11.1,29.7-16.6c6.5,3.6,13,7.3,19.5,10.9c-12.2,2.9-24,7.9-35,14.4c-2.4,1.4-5.1,2-7.8,1.7c-2.8-0.3-5.7-0.6-8.5-0.7
	c-4-0.1-8,0-12,0.3c-2.1,0.1-4-0.7-5.3-2.3c-3.8-4.6-9.5-6.2-15.1-4.2c-5.6,2-9,6.9-9,12.9c0.1,6,3.5,10.8,9.2,12.7
	c5.6,1.9,11.4,0.2,15-4.5c1.1-1.4,2.7-2.3,4.5-2.4c1-0.1,1.9-0.1,2.9-0.1c1.4,0,2.8,0.2,4.1,0.4c0.4,0.1,0.8,0.3,0.9,0.8
	c0.1,0.4,0,0.8-0.3,1.1c-9.5,8.5-17.7,18.2-24.2,29.1c-8.3,13.9-13.7,29.6-16.1,45.7c-0.4,2.4-1.5,4.6-3.2,6.4c-1.3,1.3-2.7,2.7-4,4
	c-0.9,0.9-1.8,1.9-2.8,2.8c-1.7,1.7-4.1,2.1-6.2,0.8c-6.7-4-14.4-3.2-20.1,2c-5.7,5.2-7.2,12.8-3.9,19.8c3.3,7,10.2,10.6,17.8,9.5
	s13.1-6.6,14.3-14.3c0.2-1.2,0.7-2.2,1.6-3c0.2-0.2,0.5-0.4,0.7-0.6c0.2-0.2,0.4-0.3,0.5-0.5c0.7-0.7,1.7-0.8,2.6-0.5
	c0.9,0.4,1.5,1.2,1.6,2.2c0.8,11.1,3,22.1,6.5,32.6c3.4,10.1,8,19.8,13.8,28.8c-5.2,1.3-10.4,2.6-15.6,3.9
	c-8.1-8-16.1-15.9-24.2-23.9c-0.8,11.3-1.6,22.6-2.5,34c-10.1,5.2-20.1,10.4-30.2,15.7c10.5,4.3,21,8.5,31.5,12.8
	c1.9,11.2,3.7,22.4,5.5,33.6c7.3-8.7,14.6-17.4,21.9-26c11.2,1.7,22.4,3.4,33.7,5.1c-6-9.6-12-19.3-18-28.9c2.3-4.7,4.6-9.3,7-13.9
	c0.7,0.8,1.5,1.7,2.2,2.5c7.9,8.6,17.3,16,27.6,21.3c4.5,2.3,8.1,5.8,10.6,10.3c2.5,4.5,5.1,9,7.9,13.3c1.4,2.1,2.8,4.2,4.3,6.2
	c2,2.9,2.6,6.4,1.6,9.8c-2.6,8.7,1.7,16.6,10.4,19.3c8.6,2.6,16.6-1.6,19.4-10.2c2.7-8.6-1.4-16.7-10-19.5c-2.6-0.9-4.7-2.6-6.1-4.9
	c-1-1.6-1.9-3.3-2.8-4.9c-0.4-0.8-0.8-1.7-1.2-2.5c-0.8-1.6-0.6-3.4,0.4-4.9c1-1.5,2.5-2.3,4.3-2.3c6.5,0.2,12.9-0.4,19.2-1.6
	c12.3-2.4,23.9-7.5,34.3-14.5c3.5,6.8,7,13.7,10.5,20.5c-5.9,9.7-11.8,19.4-17.7,29.1c11.2-1.8,22.4-3.6,33.6-5.4
	c7.4,8.6,14.8,17.2,22.2,25.8c1.7-11.2,3.5-22.4,5.2-33.6c7.6-3.2,15.3-6.4,22.9-9.6c1.1,4.7,2.5,9.7,4,14.5
	c3.3,10.3,7.1,19.7,18.5,40.9c1.1,2.1,2.3,4.3,17.2,29.8c19.2,0,38.4,0,57.6,0c-10.6-17.2-13.8-22-16.7-26.3
	c-17.4-25.9-22.9-34.3-27.8-43.8c-2.6-5-5-10.4-7.2-15.8c-3.9-9.8-3.6-20.4,0.9-30c4.5-9.6,12.4-16.6,22.5-19.9
	c4.6-1.5,9.3-2.5,14.1-3c7.3-0.7,14.8,0,22,1.9c10.1,2.6,16.9,10.5,18,20.9c0.3,3.2,0.4,5.7,0.3,8.5c-0.2,5.1-0.9,11.1-3.3,16.6
	c-1.7,3.8-4.3,7.3-7.8,10.2c-4.4,3.6-10.3,6.1-16,6.1c-4.5,0-8.9-1.7-12.3-4.3c-2.5-1.9-4.5-4.3-6-7c-1.9-3.5-3-7.6-2.5-11.5
	c0.4-3.6,2.2-7,4.7-9.8c3.2-3.5,7.5-5.8,12-6.6c2.6-0.4,5.2-0.3,7.8-0.1c0.5,2.6,1.4,4,2.6,5c1.8,1.6,4.2,2,6.5,1.9
	c1.7,0,3.4-0.3,4.9-1.3c1.4-0.9,2.6-2.3,3.3-3.9c1.2-2.7,0.9-5.8-0.4-8.1c-0.8-1.5-2-2.7-3.4-3.6c-2.2-1.5-4.7-2.3-7.3-2.8
	c-4.8-0.9-9.5-0.7-14.3,0.3c-5.9,1.1-11.7,3.3-16.6,6.8c-5.6,4-9.9,9.8-11.5,16.6c-1.6,6.7-0.6,14.4,2.3,20.8
	c2.4,5.4,6.1,10,10.8,13.5c5.7,4.2,12.9,6.8,20.2,6.7c8.2,0,16.7-3.3,22.9-8c4.8-3.6,8.4-8.1,10.9-13.4c2.5-5.4,4-11.7,4.6-18.3
	c0.6-7.3,0.1-15-0.7-21.7c3.5,1.8,7.1,3.6,10.7,5.3c1,0.5,1.8,1.3,2.3,2.3c3.7,8.7,7.3,17.4,11.1,26c1.3,3,2.6,5.9,3.9,8.9
	c0.7,1.6,0.5,3.3-0.7,4.6c-6,7.1-6.4,16.4-0.9,24c5.5,7.6,14.4,10.2,23,6.7c8.7-3.4,13.3-11.5,12.1-20.7
	c-1.3-9.2-7.9-15.7-17.2-16.8c-1.6-0.2-3-1.2-3.6-2.7c-0.5-1.1-0.9-2.2-1.4-3.3c-2.1-5.3-4.1-10.7-6-16.1c-0.5-1.4-0.3-3,0.7-4.2
	c0.9-1.2,2.3-1.8,3.8-1.7c2.4,0.2,4.8,0.3,7.3,0.3c11.8-0.1,23.6-2.9,34.4-7.8c6.5-3,12.7-6.7,18.3-11.1c1.5-1.2,3.3-1.4,5-0.7
	c2.4,1,4,1.6,5.7,2.3c1.4,0.6,2.8,1.4,3.9,2.5c2.8,2.6,5.6,5.3,8.3,7.9c-2.1,9.9-4.2,19.7-6.2,29.6c8.9-4.8,17.7-9.7,26.6-14.5
	c8.7,5,17.5,10,26.2,15.1c1.8,1.4,3.7,3.5,5.4,5.7c-2.6,8.1,0.2,16.2,7.4,20.8c7.2,4.6,15.7,3.9,22-1.8S913.8,1022.5,909.9,1015z
	 M810.7,773.1c7.8,4.2,14.7,10.5,18.2,18.5c3.2,7.2,3.6,15.8,1,23.4c-2.1,6.4-6.4,12-11.8,15.8c-5.2,3.7-11.4,5.9-17.9,6.1
	c-5.7,0.2-11.4-1.2-15.9-4.6c-3.7-2.9-6.5-7.1-7-11.9c-0.3-3.1,0.3-6.4,2.1-8.8c1-1.3,2.4-2.4,4-3c1.1-0.4,2.3-0.6,3.4-0.8
	c0.8,1.4,1.7,2.7,2.7,4c1.6,2,3.5,3.9,5.9,5c2.3,1.1,5,1.5,7.7,1.3c2.5-0.3,4.8-1.1,6.8-2.7c2.5-2.1,4.2-5.5,4.3-9.2
	c0.1-3.7-1.4-7.6-3.6-10.6c-2.6-3.5-6.1-5.7-9.7-7c-6.6-2.2-13.8-1.4-20.2,1.3c-4.1,1.8-7.8,4.3-10.9,7.5c-4,4.1-6.8,9.2-8.1,14.5
	c-0.7,2.9-0.9,5.9-0.8,8.8c0.2,3.5,1,7,2.3,10.3c0.8,1.9,1.7,3.7,2.8,5.3c1.3,1.9,2.7,3.6,4.2,5.3c-6.3,0.3-12.6,0.6-18.6,2.3
	c-4.8,1.3-9.4,3.5-13.6,6.3c-2.8-6.8-5.7-13.5-8.5-20.3c7.4-10.2,14.8-20.5,22.1-30.7c-12.6,1-25.1,2-37.7,3.1
	c-7.4-10.2-14.9-20.3-22.3-30.5c-2.9,12.3-5.8,24.5-8.7,36.8c-12,3.9-24,7.9-35.9,11.8c8.5,5.2,17.1,10.4,25.6,15.6
	c-7.1,4-14.2,8.1-21.3,12c-5.5,3-11.1,6-16.6,8.9c-1.5,0.8-3.1,0.5-4.3-0.6c-1.2-1.1-1.5-2.8-0.9-4.3c5.5-12.3,10.6-24.6,14.1-37.5
	c2.7-10,4.4-20.3,5.2-30.7c6.3-3.8,12.7-7.6,19.5-10.3c12.7-5,26.9-6.2,40.7-6.4c10.8-0.2,21.4,0.3,32.1-0.1
	c13.6-0.5,27.2-2.1,40.8-1.3C791.8,766.4,801.8,768.4,810.7,773.1z M659.9,599.1c0.3-8.2,0.5-16.3,0.8-24.5c4.4,4,9.5,7.3,14.9,10
	c7.8,3.8,16.3,6.1,24.9,6.3c5.5,0.1,11-0.6,16.6-1.4c-1.6,5-3.2,9.9-3.8,15.1c-1,8,0.1,16.4,2.9,24c0.8,2.2,1.7,4.4,2.8,6.4
	c-6,6.7-12.1,13.5-18.1,20.2c-10.9-2-21.8-4-32.8-6c5.6,9.6,11.2,19.2,16.7,28.8c-5.3,9.8-10.5,19.5-15.8,29.3
	c8.3-1.8,16.5-3.6,24.8-5.3c-4.5,7.9-8.9,15.8-14.5,22.6c-4.3,5.3-9.2,10-14.4,14.3c-3.4,2.9-7.8,3.7-12,2.3c-4.2-1.4-7.3-4.7-8.3-9
	c-1.8-7.4-4-14.7-6.8-21.8c-2.4-6.3-5.2-12.5-8.2-18.5c-3.9-7.9-4.9-16.6-2.9-25.2c1.9-8,3.7-16,5.6-24.1c0.2-0.8,0.7-1.3,1.5-1.4
	c0.8-0.2,1.5,0.2,1.9,0.8c3.8,5.5,7.5,11.1,11.3,16.7c2.9-10.7,5.9-21.4,8.8-32.1c10.7-3.1,21.3-6.2,32-9.3
	C678.5,611.3,669.2,605.2,659.9,599.1z M766.7,686.8c1.4-7.5,6.4-14.1,12.9-17.6c8-4.3,18.2-3.9,26.7-0.2c7.3,3.1,13.3,8.6,17,15.5
	c4.2,7.9,5.4,17.7,3.5,26.3c-2,9.4-7.8,17.4-15.2,23.3c-10,7.9-23.2,11.8-36,14c-15.9,2.7-31.4,2.6-46.8,2.5
	c-13.8,0-27.6-0.1-41.3,1.7c-2.1,0.3-4.2,0.6-6.2,0.9c-2.3,0.4-4.3-0.6-5.3-2.7c-1-2-0.7-4.3,1-5.9c5.4-5.3,10.5-10.8,15-16.8
	c5.4-7.1,9.9-14.9,14.5-22.6c6.1,6.4,12.2,12.7,18.2,19.1c1.1-11,2.3-22.1,3.4-33.1c7.9-3.8,15.7-7.5,23.6-11.3
	c-1.7,5.6-2.2,11.8-1.3,17.7c0.9,6.3,3.4,12.5,7.4,17.4c3.4,4.2,7.9,7.6,13,9.7c6.7,2.7,14.4,3.3,21.2,2.4
	c5.6-0.7,10.6-2.3,15.3-5.4c3.1-2,6-4.7,8.2-7.9c1.3-2,2.3-4.2,2.9-6.5c0.8-3.2,0.7-6.6-0.3-10c-1.1-3.5-3.2-7-6.4-8.6
	c-3.7-1.8-8.8-1.1-12.4,1.3c-3.2,2.2-5.2,5.8-5.9,9.3c-0.4,2-0.4,4,0.2,6.5c0.3,1.2,0.7,2.5,3.3,4.7c-2.2,0.6-4.4,1.2-6.8,1.5
	c-6,0.7-12.7-0.8-17.2-4.8C767.3,702.5,765.3,694.2,766.7,686.8z M753.1,661c3.1,0.5,6.3,0.5,9.5,0.5c-3.4,4.3-6.8,8.5-9.2,13.4
	c-8.7-3.8-17.3-7.7-26-11.5c-0.9-6.5-1.7-12.9-2.6-19.3c0.4,0.5,0.8,1,1.3,1.5C733.1,653.5,742.9,659.5,753.1,661z M711.9,455.7
	c13,5.7,24.6,14.8,32.3,26.6c6.8,10.4,10.5,22.9,10.3,35.3c-0.2,12.1-4.2,24-11.4,33.9c-6.8,9.4-16.3,16.9-27.3,20.1
	c-8.2,2.4-17.3,2.3-25.5-0.1c-7.5-2.2-14.5-6.3-19.8-12c-4.9-5.1-8.5-11.5-9.8-18.4c-1.4-7.1-0.3-14.8,3-21.4
	c3.1-6.4,8.3-12,14.7-14.8c5.1-2.2,11-2.7,16.5-1.4c4.3,1.1,8.3,3.3,11.3,6.4c3.1,3.2,5.3,7.3,5.8,11.8c0.4,4.4-0.8,9.1-3.6,12.3
	c-1.7,2-3.9,3.5-6.1,4.9c-0.8-1.5-2.2-2.8-3.7-3.7c-2.6-1.7-5.6-2.3-8.6-1.9c-4.1,0.6-8.2,3.2-10,6.9c-1.3,2.7-1.4,6-0.8,8.8
	c0.6,2.5,1.8,4.6,3.3,6.4c2.1,2.3,4.9,3.9,8,4.8c3.5,1,7.3,1.1,10.8,0.6c6.4-1,12-4.1,16.5-8.5c5-4.8,8.6-11.1,10.5-17.8
	c2.2-7.9,1.9-16.5-1-24c-3.3-8.5-9.9-15.6-18-20c-10.5-5.6-23.4-6.8-34.5-3c-11.1,3.8-20.3,12.4-26,22.8c-4.8,8.8-6.9,18.8-6.1,28.6
	c0.9,10.4,5,20.5,11.5,28.7c0.6,0.7,1.2,1.5,1.8,2.2c-7,5.6-14,11.2-21,16.8c-10.4-3.8-20.9-7.5-31.3-11.3
	c3.9,10.4,7.8,20.8,11.8,31.1c-5.5,7.1-11.1,14.3-16.6,21.4c-1.1-3.6-2.1-7.2-2.9-10.8c-3.4-16.2-2.6-33.1,0.7-50.3
	c1-5.2,3.9-9.5,8.4-12.4c3.4-2.2,6.8-4.1,10.5-5.5c1.3-0.5,2.7-0.3,3.8,0.5c4,2.9,8.8,2.9,12.8,0c4-2.9,5.5-7.5,3.9-12.2
	c-1.5-4.6-5.5-7.5-10.4-7.4c-4.9,0.1-8.8,3-10.2,7.7c-0.4,1.2-1.3,2.2-2.5,2.6c-0.7,0.3-1.5,0.5-2.2,0.8c-1.6,0.7-3.2,1.5-4.7,2.3
	c-0.7,0.4-1.5,0.3-2.1-0.2c-0.6-0.5-0.8-1.3-0.6-2c4.6-14.8,10.5-29.8,16.7-44.6c0.3-0.8,0.7-1.6,1-2.4c1.5-3.6,4.2-6.4,7.8-8.1
	c4.8-2.2,9.7-4.3,14.8-5.6c1.8-0.5,3.6-0.9,5.4-1.2c2-0.4,4,0.2,5.5,1.7c3.7,3.5,8.7,4.3,13.2,2c4.5-2.3,6.9-6.8,6.1-11.9
	s-4.3-8.7-9.3-9.6c-5-0.9-9.6,1.2-12.1,5.7c-0.9,1.7-2.5,2.8-4.4,3.1c-1.6,0.3-3.1,0.6-4.7,1c-2,0.5-3.9,1.1-5.9,1.7
	c-1.1,0.4-2.3,0-3-1c-0.7-1-0.6-2.2,0.2-3.1c10.3-11.9,24.3-18.6,39.6-19.6c0.1,0,0.2,0,0.3,0C687.4,448.2,700.2,450.6,711.9,455.7z
	 M609,725.4c3.6,15.9,5,32.4,4.6,48.6c-5.3-7.4-10.5-14.8-15.8-22.1C601.5,743,605.3,734.2,609,725.4z M583.3,727.9l-5.4,1.7
	l-0.2,0.1l-0.1-0.1l-0.2-0.2l-0.5-0.4l-0.9-0.8l-1.8-1.6l-7.3-6.3l-7.3-6.3l-1.8-1.6l-0.2-0.2l0,0l0,0l0,0l0.2-0.1l0.8-0.4l1.7-0.8
	l3.2-1.8l3.1-2l3-2.2l2.8-2.4l2.6-2.5l2.5-2.7l2.3-2.8l2.2-2.9l2.1-3l1.9-3.1l1.8-3.2l1.6-3.3l1.4-3.4l6.2,14l2.9,7.1l2.7,7.2
	l2.5,7.3l2.2,7.4l0.3,0.9l0.1,0.2l0,0.1l0,0.1l0,0L605,721L583.3,727.9z M612.3,651.5c-0.2,0.8-0.8,1.4-1.7,1.5s-1.6-0.3-1.9-1.1
	c-3.1-6.4-6-12.9-8.3-19.4c4.7-0.2,9.3-0.4,14-0.7c0.6,0,1.2,0.2,1.5,0.7s0.5,1.1,0.4,1.7C615,640,613.7,645.8,612.3,651.5z
	 M646.9,396.7c-0.3-2.5-0.6-4.9-1.1-7.4c6.8,2.2,13.6,4.3,20.4,6.5c-5.4,6.8-10.8,13.5-16.2,20.3c-0.5,0.6-1.3,0.9-2.1,0.5
	s-1.2-1-1.1-1.8C647.4,408.7,647.5,402.6,646.9,396.7z M681.6,431.3c-3.5-0.1-6.9,0-10.4,0.3c-3.5,0.3-7,0.8-10.5,1.4
	c-1,0.2-2-0.2-2.6-1.1c-0.6-0.9-0.5-2,0.1-2.8c5.7-7.7,11.4-15.4,17.1-23.1C677.5,414.4,679.5,422.8,681.6,431.3z M620.9,286
	c0.6-1.4,1.3-2.7,2.1-4c4.3-7.2,11.1-13,18.9-16c10.1-3.9,22-3,31.8,1.9c7.7,3.9,14.2,10.4,17.1,18.5c2.5,6.8,2.4,14.7-0.8,21.2
	c-2.5,5.1-7,9.3-12.4,11.1c-5.1,1.8-11,1.5-15.6-1.3c-3.5-2.1-6.3-5.6-7.2-9.5c-0.6-2.4-0.4-4.9-0.2-7.4c3.7-0.1,7.2-0.3,9.8-2.4
	c4-3.2,5.8-10.8,3.8-16.3c-1.8-4.8-6.4-8.1-11.1-8.5c-5.8-0.6-11.6,3.2-15,7.9c-3.6,4.9-4.6,10.8-4.7,16.4
	c-0.1,6.3,0.8,12.2,3.4,17.7c2.5,5.4,6.7,10.4,11.7,13.8c5,3.4,11,5.3,17,5.6c0.1,10.3,0.1,20.7,0.2,31c-8.5,5.3-17,10.5-25.5,15.8
	c-4.8-18-13.8-35.7-19.5-54.6c-2.8-9.2-4.7-18.6-5.7-28.2C618.3,294.4,619,290,620.9,286z M599.5,325.4c0.1,0.5,0.3,1.1,0.4,1.6
	c1,4,2.2,7.9,3.7,12.5c0.5,1.6,0,3.3-1.4,4.3c-1.4,1-3.1,0.9-4.5-0.1c-4.8-3.8-9.7-7.6-14.5-11.4C588.6,329.9,594,327.6,599.5,325.4
	z M573.2,344.6c9.3,7.5,19.8,14.6,30.6,22.5c10.9,8,13,15.8,14.4,22.7c3.6,17.9,2.1,29.4-2.2,39.6c-0.3,1.3-1.4,2.1-2.8,2.1
	c-1.3,0-2.4-0.9-2.6-2.2c-0.5-2.4-1-4.8-1.6-7.1c-4-16.1-11.3-31.8-22.7-43.9c-4.8-5.1-10.3-9.5-16.3-13.1
	C571.1,358.3,572.2,351.5,573.2,344.6z M490.1,443.1c-5.7-11.2-6.5-24.4-2.9-36.1c3-9.9,9.3-18.8,17.5-25c8.2-6.3,18.5-10,28.8-10.3
	c12.1-0.3,24.4,4,33.9,11.3c9.6,7.4,16.4,17.9,21.9,29.5c6.5,13.7,11,29.1,12.2,41.8c0.7,6.9,0.3,13-2.9,21.7
	c-2.9,6.6-5.8,13.2-8.7,19.8c-0.7,1.7-1.5,3.4-2.2,5.1c-1,2.3-2.9,3.8-5.4,4.2c-2.5,0.4-4.8-0.5-6.3-2.5c-1.3-1.5-2.5-3.1-3.8-4.6
	c-1.6-1.9-2-4.3-1.2-6.7c1.6-4.5,1-9.3-1.7-13.3c-2.7-4-6.8-6.4-11.6-6.7c9.8-7.8,17.1-19.2,18.7-31.4c1.1-8.1-0.3-16.5-4-23.9
	c-3.2-6.4-8.1-11.9-14.3-15.3c-5.2-2.8-11.3-4-17.7-3.5c-5.9,0.5-11.9,2.4-16.9,5.2c-5,2.8-8.9,6.5-11.6,11.3
	c-1.6,2.8-2.8,6-2.9,9.6c-0.2,3.3,0.5,7,2.5,9.6c1.8,2.4,4.6,3.9,7.5,4.3c3.8,0.6,7.8-0.8,10.6-3.1c2.2-1.8,3.8-4.2,4.8-6.8
	c0.8-2,1.2-4,1.2-6.1c0-1.4-0.3-2.9-0.6-4.3c1.8-1.9,4.5-3.1,7.2-3.4c4.6-0.4,9.5,2,12.8,5.5c4.1,4.3,5.6,10.3,5.4,16
	c-0.2,5.3-1.9,10.4-4.7,14.8c-3.2,5-7.8,9-13.1,11.9c-7.3,3.9-15.8,5.5-23.8,4.1C506.7,463.8,495.9,454.5,490.1,443.1z M551.7,538.8
	c-8-9-16.2-18-26.1-24.5c-7.7-5.1-16.4-8.7-25.1-12.2c1.7-7.8,3.4-15.6,5-23.4c6.8,2.8,14.2,4.3,21.5,4.2c5.6-0.1,11.2-1.2,16.4-3.2
	c-2.6,5.1-2.2,10.9,1.2,15.6c3.3,4.7,8.7,7,14.4,6.2c2.4-0.3,4.7,0.6,6.3,2.5c2.9,3.6,5.8,7.1,8.8,10.7c3.6,4.3,4.6,9.9,2.8,15.2
	c-3.2,9.7-6,19.3-8,29C563.2,552.2,557.5,545.5,551.7,538.8z M472.7,645.4c4.3-12.5,10.7-24.5,20.5-33.1
	c7.3-6.4,16.4-10.9,26.1-12.1c14.6-1.9,30.4,3.5,40.6,13.7c5.3,5.2,9,11.7,11.9,18.8c2,4.9,3.6,10.2,4.5,15.3
	c1.4,7.9,1.2,15.5-1.2,22.7c-2.1,6.3-6,12.3-11.1,17.2c-6.7,6.6-15.7,11.4-24.8,11.6c-6.5,0.1-13.2-2.2-18.7-6.2
	c-5.4-4-9.6-9.7-11-16c-1.1-5.2-0.2-10.9,1.8-15.8c0.9-2.2,2-4.3,4-6c2.3,1.6,4.4,2,6,2.3c2.1,0.3,3.7,0.2,5.4-0.1
	c3.3-0.7,7.2-2.6,9.5-6.1c1.9-3,2.6-7.2,1.9-11c-0.8-3.8-3-7.3-5.9-9.2c-3-2-6.6-2.5-9.7-2.2c-4.7,0.4-8.1,2.6-10.7,4.9
	c-1.7,1.5-3,3-4.3,4.5c-3.9,4.7-7.5,10.1-9.9,16.5c-2.3,6.2-3.3,13.2-2.9,20.2c0.4,7,2.3,13.8,5.5,19.7c3.7,6.7,9.1,12.2,15.8,15.8
	c8.5,4.6,19.1,6.3,28.8,5.1c2-0.3,3.9-0.6,5.8-1.1c-0.1,9.2-0.2,18.3-0.2,27.5c-10.2,6.1-20.4,12.3-30.6,18.4
	c11.3,3.8,22.6,7.5,33.9,11.3c2,8.6,4,17.2,6,25.7c-8.5-7.3-17.6-13.9-26.8-20.4c-8.7-6.1-17.5-12.1-25.6-19
	c-11.3-9.6-21.5-20.9-28.6-33.9c-5.8-10.5-9.6-22.2-11-34.1C465.8,675.1,467.8,659.9,472.7,645.4z M458.5,720.5
	c3,7.2,6.9,14.1,11.4,20.5c5,7,10.7,13.4,16.5,19.8c-12.7-0.6-25.5-1.2-38,0.6c-0.3,0-0.7,0.1-1,0.2c-1.7-8.7-3.5-17.3-5.2-26
	C447.7,730.5,453.1,725.5,458.5,720.5z M547.5,995.7c-0.9-11.3-1.9-22.6-2.8-33.9c-8,8-16,16.1-24,24.1c-6.5-1.5-13-3.1-19.5-4.6
	c1.1-0.9,2.1-1.8,3.1-2.7c11.6-10.6,20.8-23.9,26.4-38.5c0.5-1.2,0.9-2.5,1.3-3.7c8.3,3,16.4,6.8,24.3,10.8c4.5,2.2,7.1,6.6,7,11.6
	c-0.4,15.6,1,31.5,4,47.1C560.8,1002.4,554.2,999,547.5,995.7z M517.5,916.1c-2.6-0.4-5.2-0.7-7.8-0.9c-2.8-6.2-5.6-12.5-8.4-18.7
	c3.9-5.7,7.8-11.5,11.8-17.2c0.7,1.7,1.4,3.4,1.9,5.1C518.2,894.5,518.9,905.5,517.5,916.1z M570.6,913.1c-0.3,1-0.6,2.1-0.9,3.2
	c-0.3,1-0.5,2-0.8,3c-1,3.7-3.4,6.6-6.8,8.2s-7.3,1.6-10.7,0c-1.5-0.7-2.9-1.3-4.4-2c-3.6-1.6-7.3-3.1-11-4.5c1.3-7.9,1.6-16,0.8-24
	c-1.6-16-7.7-31.6-17.8-44.2c-2.3-2.8-4.7-5.5-7.3-8c-0.4-0.3-0.5-0.8-0.3-1.3c0.2-0.5,0.5-0.8,1.1-0.8c3.1-0.3,6-1.4,8.5-3.2
	c2-1.4,4.5-1.5,6.6-0.4c1.4,0.8,2.8,1.5,4.2,2.4c9.1,5.6,16.9,13.5,23.3,22.1c5,6.7,9.1,13.8,13,21.1
	C572.5,893.5,573.5,903.5,570.6,913.1z M587.7,871.4c-1,2.2-2.1,4.5-3.1,6.7c-0.6,1.3-1.8,2.1-3.2,2.2c-1.4,0.1-2.7-0.5-3.4-1.8
	c-3.7-5.9-7.5-11.8-11.4-17.8c-6.7-10.3-13.8-20.6-23.3-27.9c-3.6-2.8-7.5-5.1-11.6-7.3c-1.7-0.9-2.9-2.5-3.2-4.4
	c-1.8-10.1-10-16.2-20.1-15c-10.1,1.1-16.8,8.9-16.3,19.1c0.1,1.3-0.5,2.5-1.6,3.2c-1.1,0.8-2.4,0.9-3.6,0.4
	c-1.4-0.5-2.8-1.1-4.3-1.5c-14.9-4.8-31.4-4.8-46.3,1.2c-13.2,5.3-25.2,15.2-30.7,27.8c-3.4,7.7-4.4,16.3-4.3,24.8
	c0.1,8.5,1.1,17,6,25c2.9,4.8,7.2,9.5,12.9,11c3.7,0.9,8,0.6,11.6-1.1c4.8-2.2,8.4-6.6,9.7-11.8c1.2-4.9,0.3-10.4-2.4-14.7
	c-2.1-3.4-5.3-6.1-9.1-7.3c-2.2-0.7-4.6-0.9-8.1-0.7c-1.2-3.6-1.4-8.1-0.5-12.3c1.5-6.6,5.6-12.6,10.8-16.9
	c6.6-5.4,14.8-8.2,23.2-9.1c8.7-0.9,17.6,0.3,25.6,3.6c8.4,3.4,15.8,9,21.8,15.9c3.8,4.4,6.9,9.2,9.4,14.4c-7,0.8-14,1.5-21,2.3
	c-4.9-6.3-9.7-12.6-14.6-18.9c-1.6,7.8-3.3,15.5-4.9,23.3c-7.5,2.7-15,5.3-22.4,8c6.9,4,13.8,7.9,20.7,11.9
	c0.2,6.7,0.4,13.4,0.6,20.1c-0.7,0.3-1.5,0.7-2.2,1c-4.3,2-8.5,4.2-12.7,6.4c-6.9-6.5-16.4-7.2-24.2-1.8s-10.4,14.5-6.8,23.3
	c3.7,8.8,12,13.3,21.4,11.5c9.3-1.8,15.5-9,15.7-18.5c3.3-1.7,6.7-3.3,10.1-5c5.9-2.8,11.9-5.5,18.2-7.4c5.9-1.8,12-2.9,18.1-2.7
	c2,0.1,3.9,0.3,5.9,0.5c-2.6,7.4-6.2,14.4-10.8,20.7c-5.7,7.8-13,14.5-21.1,20c-8.3,5.5-17.5,9.8-27.2,11.8
	c-13.3,2.7-27.7,1.3-40.3-3.9c-10.5-4.3-19.8-11.1-27.4-19.4c-7.5-8-13.4-17.4-17.8-27.5c-7-16-10.2-33.6-9.5-51.1
	c0.6-13.7,3.6-27.4,9.3-39.8c8-17.6,21.4-32.8,37.5-43.9C423,787,442.3,780,462,778.8c18-1.1,36.3,2.5,52.5,10.1
	c14.9,7,28.1,17.3,39.6,29.2c10.5,10.8,19.7,22.8,26.9,35.9c2.4,4.3,4.6,8.8,6.6,13.3C588.3,868.6,588.3,870.1,587.7,871.4z
	 M501,915.3c-3.4,0.3-6.7,0.8-10,1.5c-4.4,1-8.6,2.3-12.8,3.9c3.4-3,6.7-6.1,10-9.1C492.4,912.8,496.7,914.1,501,915.3z M568,805.1
	c-1-1-2-2-3-2.9c6-8.1,12-16.3,18-24.4c10.1,0.9,20.2,1.8,30.4,2.6c-1,16.8-3.9,33.2-8.3,48c-1.9,6.3-4,12.4-6.4,18.2
	C590.6,831.4,580.2,817.2,568,805.1z M811.3,926.1c-3.3,10.7-9.5,20.4-17.7,27.9c-8.1,7.3-18,12.6-28.7,15.2
	c-11.8,2.9-24.6,2.7-36-0.9c-11.5-3.6-21.7-10.7-32.8-16c-10.1-4.8-20.9-8.2-32-9.1c-3.2-0.3-6-2-7.7-4.7c-1.7-2.8-2-6-0.8-9
	c1.6-4,3.2-8,4.8-12c1.2-2.9,3.5-5,6.6-5.9c7.1-2,11.7-7.7,12.2-15.1c0.4-7.4-3.5-13.6-10.4-16.4c-6.8-2.8-14-1-18.9,4.5
	c-4.8,5.6-5.5,12.9-1.8,19.3c1.6,2.8,1.8,6,0.6,9c-1.8,4.3-3.7,8.6-5.8,12.8c-2.4,5-5.1,9.8-7.8,14.6c-2.6,4.5-6.5,8-11.3,10.1
	c-1.1,0.5-2.3,1-3.4,1.6c-4.1,2-8.6,1.7-12.5-0.8c-3.8-2.5-5.9-6.6-5.7-11.1c0.4-9.7,1.8-19.2,4-28.5c0.5-2.2,1.1-4.4,1.7-6.6
	c3.1-10.9,10.3-19.7,20.3-25c8.1-4.2,16.2-8.4,24.3-12.5c8.9-4.4,17.8-8.7,26.7-12.9c0,7.8,0,15.6,0.1,23.3
	c9.6-8.2,19.1-16.4,28.7-24.7c6.4,2,12.7,4.1,19.1,6.1c-6.8,7.3-11.9,16.1-13.9,25.7c-2.3,11.1-0.4,23.3,5,33.3
	c4.7,8.7,12,15.8,20.7,20.3c9.1,4.8,19.8,6.8,29.8,4.9c8.6-1.6,16.7-6.2,22.5-13c5.8-6.7,9.4-15.7,7.9-24.9
	c-1.2-7.4-5.8-15.1-11-20.2c-4.4-4.3-9.4-6.7-15.8-8.1c-5.5-1.1-12-1.5-17.3,0.8c-4.2,1.8-7.6,5.4-8.9,9.9
	c-1.2,3.8-0.8,8.2,0.9,11.6c1.5,2.9,4.1,5,7,6c3.5,1.3,7.3,1.1,10.7-0.1c2.3-0.8,4.5-2.1,6.1-3.8c0.8-0.8,1.6-1.8,2.3-2.8
	c2.3,1,4.7,1.9,6.4,3.6c1.4,1.4,2.3,3.3,2.7,5.2c0.5,3.3-0.9,6.7-2.9,9.6c-2.7,3.8-6.5,6.5-10.7,7.9c-5.8,2-12.4,1.4-18.3-0.8
	c-7-2.7-12.9-8-16.5-14.5c-3-5.3-4.4-11.6-3.9-17.6c0.6-7.2,3.9-14.2,8.8-19.7c7.5-8.4,18.7-13.7,29.7-13.8c9.2-0.1,18.3,3.5,25.7,9
	c7.6,5.7,13.4,13.5,16.6,22.3C814.8,901.8,814.8,914.5,811.3,926.1z M844,934.2c-3.7,7.9-7.5,15.8-11.2,23.6
	c-1.3,0.1-2.6,0.3-3.9,0.4c-2.1,0.2-4.1-0.1-6-0.8c-0.2-0.1-0.5-0.2-0.7-0.3c-1.4-0.6-2.4-1.7-2.9-3.1c-0.5-1.4-0.3-2.9,0.5-4.2
	c3.4-5.5,6.1-11.4,8.1-17.5c3.5-11.2,4.5-23.2,2.8-34.7c-0.1-0.8-0.2-1.5-0.4-2.3c5.3,3.8,10.6,7.6,15.9,11.5
	C845.4,915.9,844.7,925.1,844,934.2z"/>
<text transform="matrix(1 0 0 1 502.0928 1135.8721)" class="st1 st2">freepatternsarea.com</text>
</svg>
